<?xml version="1.0" encoding="UTF-8" standalone="no"?>
<!DOCTYPE svg PUBLIC "-//W3C//DTD SVG 1.1//EN"
"http://www.w3.org/Graphics/SVG/1.1/DTD/svg11.dtd">


<!-- Page 1 -->
<svg x="0" y="0" width="900" height="420" viewBox="0 0 900 420" version="1.1" xmlns="http://www.w3.org/2000/svg" xmlns:xlink="http://www.w3.org/1999/xlink">
<defs>
<clipPath id="c0_1"><path d="M42.8,1245L42.8,44.1l825,0l0,1200.9Z" /></clipPath>
<clipPath id="c1_1"><path d="M606.7,296.6L532.2,222.1l74.5,-74.5l74.5,74.5l-74.5,74.5Z" /></clipPath>

<style type="text/css"><![CDATA[

.g1_1{
fill: #f1f1f1;
}
.g2_1{
fill: none;
stroke: #000000;
stroke-width: 0.81608546;
stroke-linecap: butt;
stroke-linejoin: miter;
stroke-miterlimit: 4;
}
.g3_1{
}

.s1_1{
font-size: 103.99px;
font-family: Snippet_h;
fill: TRANSPARENT;
}
text::-moz-selection {
	color: transparent;
	background: rgba(0, 106, 173, 0.4);
}
text::selection {
	color: transparent;
	background: rgba(0, 106, 173, 0.4);
}

]]></style>

</defs>
<path d="M0,0
L0,1286
L909,1286
L909,0 Z " 
fill="#FFFFFF" stroke="none" />
<path d="M42.8,1245l825,0l0,-1200.9l-825,0l0,1200.9Z" class="g1_1" />
<path d="M42.8,1245l825,0l0,-1200.9l-825,0l0,1200.9Z" class="g1_1" />
<g clip-path="url(#c0_1)">
<g fill="#000000" >
<use xlink:href="#f0_1l" transform="matrix(68.1,0,0,68.1,256.7,261)" />
<use xlink:href="#f0_2c" transform="matrix(68.1,0,0,68.1,331.1,261)" />
<use xlink:href="#f0_2c" transform="matrix(68.1,0,0,68.1,389.1,261)" />
<use xlink:href="#f0_21" transform="matrix(68.1,0,0,68.1,447.1,261)" />
<use xlink:href="#f0_2e" transform="matrix(68.1,0,0,68.1,501.2,261)" />
</g>
</g>
<text 
x="256" 
y="261" 
dx="0,0,0,0,0" 
class="s1_1"
>Upper</text>

<path d="M272.4,189.9l0,43.4c0,3.6,0.5,6.8,1.6,9.6c1,2.9,2.5,5.3,4.3,7.3c1.9,1.9,4.2,3.5,6.8,4.5c2.6,1.1,5.5,1.7,8.7,1.7c3.2,0,6.1,-0.6,8.8,-1.7c2.7,-1,5,-2.6,6.8,-4.5c1.9,-2,3.4,-4.4,4.4,-7.3c1,-2.8,1.6,-6,1.6,-9.6l0,-43.4l6.3,0l0,43.4c0,4.3,-0.7,8.2,-2,11.7c-1.3,3.5,-3.2,6.5,-5.6,9.1c-2.5,2.5,-5.4,4.5,-8.8,5.9c-3.4,1.4,-7.2,2.1,-11.4,2.1c-4.2,0,-8,-0.7,-11.5,-2.1c-3.4,-1.4,-6.3,-3.4,-8.7,-5.9c-2.5,-2.6,-4.3,-5.6,-5.7,-9.1c-1.3,-3.5,-1.9,-7.4,-1.9,-11.7l0,-43.4l6.3,0Zm89.3,18.3c3.6,0,6.7,0.7,9.4,2.1c2.8,1.4,5.1,3.3,7,5.7c1.9,2.4,3.4,5.3,4.3,8.5c1,3.2,1.5,6.7,1.5,10.4c0,3.9,-0.6,7.5,-1.7,10.8c-1.2,3.3,-2.8,6.1,-4.9,8.6c-2.1,2.4,-4.7,4.3,-7.7,5.7c-2.9,1.4,-6.3,2.1,-9.9,2.1c-3,0,-5.5,-0.1,-7.8,-0.3c-2.2,-0.3,-4.2,-0.5,-5.8,-0.7l0,25.9l-5.7,0l0,-62.7c0,-2.8,-0.3,-5.1,-1,-7.2c-0.7,-2,-1.8,-3.7,-3.1,-5.2l3.5,-3.4c1.5,1.2,2.7,2.5,3.6,4c0.8,1.4,1.5,3,1.9,4.7c1.5,-2.8,3.6,-5,6.5,-6.6c2.9,-1.6,6.2,-2.4,9.9,-2.4Zm0,5.4c-1.7,0,-3.4,0.3,-5.2,0.8c-1.7,0.6,-3.3,1.4,-4.7,2.5c-1.5,1.1,-2.7,2.5,-3.8,4.2c-1,1.7,-1.7,3.6,-1.9,5.8l0,28.8c1.3,0.2,3.1,0.4,5.5,0.6c2.5,0.2,5.1,0.4,8,0.4c2.7,0,5.2,-0.6,7.5,-1.6c2.2,-1,4.2,-2.5,5.8,-4.4c1.6,-1.8,2.9,-4.1,3.8,-6.7c0.8,-2.7,1.3,-5.6,1.3,-8.8c0,-2.7,-0.4,-5.4,-1.1,-8.1c-0.7,-2.6,-1.7,-4.9,-3,-6.9c-1.4,-2,-3.1,-3.6,-5.1,-4.8c-2,-1.2,-4.4,-1.8,-7.1,-1.8Zm58.1,-5.4c3.5,0,6.6,0.7,9.4,2.1c2.7,1.4,5,3.3,6.9,5.7c1.9,2.4,3.4,5.3,4.4,8.5c0.9,3.2,1.4,6.7,1.4,10.4c0,3.9,-0.6,7.5,-1.7,10.8c-1.1,3.3,-2.8,6.1,-4.9,8.6c-2.1,2.4,-4.7,4.3,-7.6,5.7c-3,1.4,-6.3,2.1,-10,2.1c-2.9,0,-5.5,-0.1,-7.8,-0.3c-2.2,-0.3,-4.1,-0.5,-5.7,-0.7l0,25.9l-5.8,0l0,-62.7c0,-2.8,-0.3,-5.1,-1,-7.2c-0.7,-2,-1.7,-3.7,-3.1,-5.2l3.5,-3.4c1.5,1.2,2.7,2.5,3.6,4c0.9,1.4,1.5,3,1.9,4.7c1.5,-2.8,3.7,-5,6.5,-6.6c2.9,-1.6,6.2,-2.4,10,-2.4Zm0,5.4c-1.8,0,-3.5,0.3,-5.2,0.8c-1.8,0.6,-3.4,1.4,-4.8,2.5c-1.5,1.1,-2.7,2.5,-3.8,4.2c-1,1.7,-1.6,3.6,-1.8,5.8l0,28.8c1.2,0.2,3,0.4,5.5,0.6c2.4,0.2,5,0.4,7.9,0.4c2.8,0,5.3,-0.6,7.5,-1.6c2.3,-1,4.2,-2.5,5.8,-4.4c1.7,-1.8,2.9,-4.1,3.8,-6.7c0.9,-2.7,1.3,-5.6,1.3,-8.8c0,-2.7,-0.4,-5.4,-1.1,-8.1c-0.6,-2.6,-1.7,-4.9,-3,-6.9c-1.4,-2,-3.1,-3.6,-5.1,-4.8c-2,-1.2,-4.3,-1.8,-7,-1.8Zm39.8,26.6c0.6,5.4,2.3,9.5,5.1,12.3c2.8,2.8,7,4.2,12.4,4.2c2.9,0,5.6,-0.5,8.3,-1.5c2.6,-1,5.2,-2.1,7.9,-3.5L496,256c-2.4,1.7,-5.3,3.1,-8.5,4.3c-3.2,1.2,-6.7,1.8,-10.4,1.8c-7.9,0,-13.8,-2.3,-17.8,-6.9c-4,-4.7,-5.9,-11.3,-5.9,-19.9c0,-3.6,0.5,-7,1.6,-10.3c1,-3.2,2.6,-6.1,4.5,-8.6c2,-2.5,4.4,-4.5,7.2,-6c2.7,-1.5,5.8,-2.2,9.2,-2.2c2.6,0,5,0.4,7.3,1.1c2.3,0.7,4.3,1.8,6,3.1c1.7,1.4,3,3,4,5c1,2,1.5,4.2,1.5,6.6c0,3.1,-0.6,5.6,-1.9,7.7c-1.4,2.1,-3.1,3.7,-5.2,5c-2.1,1.2,-4.5,2.1,-7.3,2.7c-2.7,0.6,-5.5,0.8,-8.4,0.8l-12.3,0Zm16.3,-26.9c-2.5,0,-4.7,0.6,-6.8,1.9c-2,1.2,-3.8,2.8,-5.2,4.9c-1.5,2,-2.6,4.3,-3.4,6.8c-0.8,2.6,-1.2,5.2,-1.2,7.9l12.6,0c3.5,0,6.4,-0.3,8.6,-1c2.2,-0.6,3.9,-1.5,5.2,-2.5c1.2,-1.1,2.1,-2.2,2.5,-3.5c0.4,-1.3,0.6,-2.5,0.6,-3.8c0,-3.2,-1.2,-5.8,-3.6,-7.8c-2.4,-1.9,-5.5,-2.9,-9.3,-2.9Zm61.1,1.1c-0.7,0,-1.4,-0.1,-2.1,-0.3c-0.6,-0.1,-1.4,-0.2,-2.2,-0.3c-0.7,-0.1,-1.6,-0.1,-2.6,-0.1c-2.8,0,-5.4,0.9,-7.7,2.7c-2.3,1.8,-4.3,4.3,-6.1,7.5l0,0.4l0,36.7l-5.8,0l0,-36.7c0,-2.8,-0.3,-5.1,-1,-7.2c-0.7,-2,-1.7,-3.7,-3.1,-5.2l3.5,-3.4c1.6,1.2,2.9,2.6,3.8,4.1c0.9,1.6,1.5,3.3,1.9,5.1c1.8,-3.2,4,-5.6,6.4,-7.2c2.4,-1.5,5.4,-2.3,8.8,-2.3c0.8,0,1.5,0,2.3,0.1c0.8,0.1,1.4,0.2,2,0.3c0.7,0.2,1.3,0.3,1.9,0.4l0,5.4Z" class="g2_1" />
<g clip-path="url(#c1_1)">
<path d="M616.9,246.9c-1.5,0,-2.7,-1.2,-2.7,-2.8l0,-28.8l-30.4,0c-1.6,0,-2.7,-1.2,-2.7,-2.7c0,-1.6,1.1,-2.8,2.7,-2.8l33.1,0c1.6,0,2.9,1.3,2.8,2.8l0,31.5c0,1.6,-1.2,2.8,-2.8,2.8Zm27,12.4c-20.6,20.6,-53.9,20.6,-74.5,0c-20.6,-20.5,-20.6,-53.9,0,-74.5c20.6,-20.5,53.9,-20.5,74.5,0c20.6,20.6,20.6,54,0,74.5ZM640,255.4c18.4,-18.4,18.3,-48.3,0,-66.6c-18.4,-18.5,-48.2,-18.5,-66.7,0c-18.4,18.4,-18.4,48.2,0,66.6c18.4,18.3,48.3,18.4,66.7,0Z" class="g3_1" />
</g>

<defs>
	<path d="M546.9,-15.2c0,0,-93.1,0,-168.8,30.5c0,0,-75.6,30.5,-129.1,87.1c0,0,-53.4,56.5,-82.5,133.6c0,0,-29,77.2,-29,171.9l0,637.1l93.2,0l0,-637.1c0,0,0,-79.4,22.9,-142.1c0,0,22.9,-62.6,64.2,-106.1c0,0,41.2,-43.6,99.3,-67.3c0,0,58,-23.6,128.3,-23.6c0,0,70.3,0,129.1,23.6c0,0,58.8,23.7,100.1,67.3c0,0,41.2,43.5,64.2,106.1c0,0,22.9,62.7,22.9,142.1l0,637.1l93.2,0l0,-637.1c0,0,0,-94.7,-29.1,-171.9c0,0,-29,-77.1,-83.2,-133.6c0,0,-54.3,-56.6,-129.1,-87.1c0,0,-74.9,-30.5,-166.6,-30.5Z" 
	id="f0_1l"
	transform="scale(0.001,-0.001)" />

	<path d="M418.6,64.2c0,0,61.1,0,110.8,22.9c0,0,49.6,22.9,85.5,64.2c0,0,35.9,41.2,55,99.3c0,0,19.1,58,19.1,128.3c0,0,0,61.1,-15.2,119.2c0,0,-15.3,58,-45.1,101.6c0,0,-29.8,43.5,-74.1,70.2c0,0,-44.3,26.8,-103.9,26.8c0,0,-38.2,0,-76.4,-12.3c0,0,-38.2,-12.2,-70.3,-36.6c0,0,-32.1,-24.5,-55,-61.1c0,0,-22.9,-36.7,-27.5,-85.6l0,-423.2c0,0,27.5,-3,81,-8.4c0,0,53.5,-5.3,116.1,-5.3Zm-281.1,-446l0,921.1c0,0,0,61.1,-15.3,105.4c0,0,-15.3,44.3,-45.8,76.4l51.9,50.4c0,0,33.6,-25.9,52.7,-58c0,0,19.1,-32.1,28.3,-70.3c0,0,32.1,62.6,95.5,97.8c0,0,63.4,35.1,145.9,35.1c0,0,77.9,0,138.3,-30.5c0,0,60.3,-30.6,102.3,-84.1c0,0,42,-53.4,63.4,-124.5c0,0,21.4,-71,21.4,-153.5c0,0,0,-85.6,-25.2,-158.2c0,0,-25.2,-72.5,-71.8,-126c0,0,-46.6,-53.5,-112.3,-84c0,0,-65.7,-30.5,-146.7,-30.5c0,0,-64.1,0,-113.8,4.6c0,0,-49.6,4.6,-84.8,9.2l0,-380.4Z" 
	id="f0_2c"
	transform="scale(0.001,-0.001)" />

	<path d="M363.6,385c0,0,77.9,0,126.8,14.5c0,0,48.9,14.5,76.4,37.4c0,0,27.5,23,36.7,51.2c0,0,9.1,28.3,9.1,55.8c0,0,0,71.8,-52.7,114.6c0,0,-52.7,42.8,-136.7,42.8c0,0,-55,0,-100.1,-27.5c0,0,-45,-27.5,-77.1,-71.9c0,0,-32.1,-44.3,-49.7,-100.8c0,0,-17.5,-56.5,-17.5,-116.1ZM440,-15.2c0,0,-172.6,0,-260.5,101.5c0,0,-87.8,101.6,-87.8,291.1c0,0,0,79.4,23.6,151.2c0,0,23.7,71.8,67.3,126.8c0,0,43.5,55,104.6,87.9c0,0,61.1,32.8,136,32.8c0,0,56.5,0,106.9,-16c0,0,50.5,-16.1,87.9,-45.9c0,0,37.4,-29.8,59.6,-73.3c0,0,22.1,-43.5,22.1,-97c0,0,0,-67.2,-29,-113.1c0,0,-29,-45.8,-75.6,-73.3c0,0,-46.6,-27.5,-107,-39.7c0,0,-60.3,-12.2,-124.5,-12.2l-180.3,0c0,0,13.8,-119.2,75.7,-180.3c0,0,61.8,-61.1,181,-61.1c0,0,64.2,0,122.2,21.4c0,0,58.1,21.3,116.1,51.9L718.1,73.3c0,0,-53.5,-36.6,-124.6,-62.6c0,0,-71,-25.9,-153.5,-25.9Z" 
	id="f0_21"
	transform="scale(0.001,-0.001)" />

	<path d="M137.5,0l0,539.3c0,0,0,61.1,-15.3,105.4c0,0,-15.3,44.3,-45.8,76.4l51.9,50.4c0,0,35.2,-25.9,55,-60.3c0,0,19.9,-34.4,29.1,-74.1c0,0,39.7,70.3,93.2,104.6c0,0,53.4,34.4,129.8,34.4c0,0,16.8,0,33.6,-1.5c0,0,16.8,-1.5,29.1,-4.6c0,0,15.2,-3.1,27.5,-6.1l0,-79.5c0,0,-13.8,1.6,-30.6,4.6c0,0,-13.7,3.1,-31.3,4.6c0,0,-17.6,1.5,-39,1.5c0,0,-62.6,0,-113,-39.7c0,0,-50.4,-39.7,-90.2,-110l0,-6.1L221.5,0Z" 
	id="f0_2e"
	transform="scale(0.001,-0.001)" />


</defs>


</svg>
