<?xml version="1.0" encoding="iso-8859-1"?>
<!DOCTYPE svg PUBLIC "-//W3C//DTD SVG 1.1//EN" "http://www.w3.org/Graphics/SVG/1.1/DTD/svg11.dtd">
<svg width="116" height="116" viewBox="0 0 116 116" xmlns="http://www.w3.org/2000/svg" xmlns:svg="http://www.w3.org/2000/svg">
    <g>
        <g id="svg_1">
            <path id="svg_2" d="m68.1,82.6c-1.5,0 -2.7,-1.2 -2.7,-2.8l0,-28.8l-30.4,0c-1.6,0 -2.7,-1.2 -2.7,-2.7c0,-1.6 1.1,-2.8 2.7,-2.8l33.1,0c1.6,0 2.9,1.3 2.8,2.8l0,31.5c0,1.6 -1.2,2.8 -2.8,2.8zm27,12.4c-20.6,20.6 -53.9,20.6 -74.5,0c-20.6,-20.5 -20.6,-53.9 0,-74.5c20.6,-20.5 53.9,-20.5 74.5,0c20.6,20.6 20.6,54 0,74.5zm-3.9,-3.9c18.4,-18.4 18.3,-48.3 0,-66.6c-18.4,-18.5 -48.2,-18.5 -66.7,0c-18.4,18.4 -18.4,48.2 0,66.6c18.4,18.3 48.3,18.4 66.7,0z"/>
        </g>
    </g>
</svg>
